<svg width="817" height="444" viewBox="0 0 817 444" fill="none" xmlns="http://www.w3.org/2000/svg">
<path d="M808 433L458.5 258L408.5 331L358.688 258L9.5 432.5M330 158L112.5 310L222.5 82.5L330 158ZM9 432.5L408 158L209.5 8L9 432.5ZM45.5 388.5L382.5 158L209.5 32.5L45.5 388.5ZM80.5 349L357.5 158L216.5 56.5L80.5 349ZM486.5 157.5L704 309.5L594 82.0001L486.5 157.5ZM807.5 433L408.5 158.177L607 8.00008L807.5 433ZM771 388.948L434 158.177L607 32.5289L771 388.948ZM736 349.402L459 158.177L600 56.5572L736 349.402ZM704 310.356L486.5 158.177L594 82.5878L704 310.356ZM408 136L586.5 4L230.5 4L408 136ZM408 119.5L542.5 20H273.5L408 119.5ZM408 102L502.5 34.5H315.5L408 102Z" stroke="white" stroke-width="7"/>
</svg>
